<svg id="グループ_122" data-name="グループ 122" xmlns="http://www.w3.org/2000/svg" xmlns:xlink="http://www.w3.org/1999/xlink" width="127.229" height="59.816" viewBox="0 0 127.229 59.816">
  <defs>
    <clipPath id="clip-path">
      <rect id="長方形_114" data-name="長方形 114" width="127.229" height="59.816"/>
    </clipPath>
  </defs>
  <g id="グループ_118" data-name="グループ 118" clip-path="url(#clip-path)">
    <path id="パス_16" data-name="パス 16" d="M41.974,16.231h-9.62c-.9-3.509-2.83-6.221-6.486-7.183a11.106,11.106,0,0,0-9.792,1.824c-3.107,2.266-4.21,5.58-4.9,9.082a20.757,20.757,0,0,0,.927,11.1c2.267,6.365,8.786,9.666,15.292,6.825,2.614-1.142,4.218-3.474,4.879-6.554h-8.6V23.713H42.688c-.1,2.065-.05,4.159-.354,6.2a38.424,38.424,0,0,1-1.547,6.63c-1.516,4.487-4.886,7.424-9.061,9.222a22.5,22.5,0,0,1-16.532.545C7.359,43.649,3.032,37.88,1.29,30.033A27.663,27.663,0,0,1,2.539,13.416C5.493,6.067,10.852,1.644,18.746.379c4.936-.791,9.728-.437,14.186,1.967A17.136,17.136,0,0,1,42.05,14.932a2.733,2.733,0,0,1,0,.636c-.011.2-.048.4-.081.663" transform="translate(-0.384 0)"/>
    <path id="パス_17" data-name="パス 17" d="M295.865,33.4V48.566h-9.821V3.156h1.722c6.317,0,12.635.085,18.95-.022,7.458-.127,13.935,5.106,15.091,12.01,1.178,7.037-1.222,13.823-9.157,16.946a22.206,22.206,0,0,1-6.685,1.259c-3.317.206-6.656.053-10.1.053m.011-7.641c3.44,0,6.742.248,9.99-.063,3.991-.382,6.836-1.069,7.679-6.116.55-3.29-.516-7.8-5.052-8.349-4.132-.5-8.37-.105-12.617-.105Z" transform="translate(-194.861 -2.134)"/>
    <rect id="長方形_113" data-name="長方形 113" width="126.968" height="6.814" transform="translate(0 53.002)"/>
    <path id="パス_18" data-name="パス 18" d="M148.3,3.335h10.758L176.411,48.5c-3.256,0-6.352.036-9.444-.05-.35-.01-.842-.655-1-1.1-3-8.663-5.963-17.342-8.942-26.013-1.092-3.18-2.213-6.35-3.365-9.654-2.408,7.059-4.771,14.008-7.149,20.952-1.695,4.949-3.42,9.889-5.107,14.841a1.3,1.3,0,0,1-1.449,1.047c-2.917-.053-5.837-.02-9-.02L148.3,3.335" transform="translate(-89.211 -2.272)"/>
  </g>
</svg>
