<?xml version="1.0" encoding="UTF-8"?>
<svg id="Layer_1" data-name="Layer 1" xmlns="http://www.w3.org/2000/svg" viewBox="0 0 3775.8 1235.45">
  <defs>
    <style>
      .cls-1, .cls-2, .cls-3 {
        font-size: 542.06px;
      }

      .cls-2 {
        fill: #999;
        opacity: .42;
      }

      .cls-2, .cls-4 {
        letter-spacing: .08em;
      }

      .cls-3, .cls-5 {
        letter-spacing: .1em;
      }

      .cls-6 {
        fill: #666;
        font-family: MinionConceptRoman-DisplayBold, 'Minion Variable Concept';
        font-size: 144px;
        font-variation-settings: 'wght' 700, 'opsz' 36;
        font-weight: 700;
      }

      .cls-7 {
        letter-spacing: .07em;
      }

      .cls-8 {
        letter-spacing: .02em;
      }

      .cls-9 {
        letter-spacing: .01em;
      }

      .cls-10 {
        letter-spacing: .04em;
      }

      .cls-11 {
        letter-spacing: 0em;
      }
    </style>
  </defs>
  <text class="cls-3" transform="translate(0 494.9)"><tspan x="0" y="0">内見会</tspan></text>
  <text class="cls-2" transform="translate(721.08 626.59)"><tspan x="0" y="0">展</tspan></text>
  <text class="cls-1" transform="translate(1945.74 485.88)"><tspan class="cls-5" x="0" y="0">内展</tspan><tspan class="cls-4" x="1192.53" y="0">会</tspan></text>
  <text class="cls-2" transform="translate(2399.13 616.52)"><tspan x="0" y="0">見</tspan></text>
  <text class="cls-6" transform="translate(2098.72 618.1)"><tspan class="cls-8" x="0" y="0">NA</tspan><tspan x="190.94" y="0">I</tspan></text>
  <text class="cls-6" transform="translate(3050.3 118.8)"><tspan x="0" y="0">T</tspan><tspan class="cls-11" x="88.56" y="0">E</tspan><tspan x="168.62" y="0">N</tspan></text>
  <text class="cls-6" transform="translate(3130.96 643.09)"><tspan class="cls-7" x="0" y="0">K</tspan><tspan class="cls-9" x="100.37" y="0">A</tspan><tspan x="186.04" y="0">I</tspan></text>
  <text class="cls-6" transform="translate(1176.87 679.74)"><tspan class="cls-7" x="0" y="0">K</tspan><tspan class="cls-9" x="100.37" y="0">A</tspan><tspan x="186.04" y="0">I</tspan></text>
  <text class="cls-6" transform="translate(146.59 628.17)"><tspan class="cls-8" x="0" y="0">NA</tspan><tspan x="190.94" y="0">I</tspan></text>
  <text class="cls-6" transform="translate(1086.53 126.62)"><tspan class="cls-10" x="0" y="0">K</tspan><tspan class="cls-11" x="96.05" y="0">E</tspan><tspan x="176.11" y="0">N</tspan></text>
  <text/>
</svg>